<svg id="Capa_1" data-name="Capa 1" xmlns="http://www.w3.org/2000/svg" viewBox="0 0 386.13 271.13"><defs><style>.cls-1{fill:#b2d31b;}.cls-2{fill:#f88019;}.cls-3{fill:none;stroke:#fff;stroke-miterlimit:10;stroke-width:4px;}</style></defs><ellipse class="cls-1" cx="260.85" cy="189.04" rx="125.28" ry="74.42"/><circle class="cls-2" cx="135.57" cy="135.57" r="135.57"/><path class="cls-3" d="M212.56,273.1l81.81-57.19c5.74-4,12.2,4,7.09,8.74L240.09,282.1c-1.93,1.81-14.82,24.66,18.84,0,6.57-4.82,141.53-104.11,142.11-92,.52,10.81-76.22,73.71-124.11,111.88-3.2,2.55-.05,12.28,17.27-2.06,28.6-23.67,56.09-30.19,41.77-14.08-25.56,28.75-71.8,44.87-63.58,59.08s84.52-68.81,101-70.3-83.77,93.49-83.77,93.49" transform="translate(-204.33 -118.28)"/></svg>